<svg version="1.1" id="Layer_1" xmlns="http://www.w3.org/2000/svg" xmlns:xlink="http://www.w3.org/1999/xlink" x="0px" y="0px"
	 width="100%" viewBox="0 0 1024 1024" enable-background="new 0 0 1024 1024" xml:space="preserve">
<path fill="#000000" opacity="1.000000" stroke="none" 
	d="
M453.020447,452.994171 
	C454.942993,459.708801 456.882294,466.418732 458.778168,473.140900 
	C459.366638,475.227234 459.737518,477.343597 458.231934,480.208771 
	C452.779755,473.320648 453.044891,464.252869 447.581207,457.548035 
	C448.575562,467.353485 449.539062,476.854492 450.592834,487.245941 
	C446.423065,485.259827 446.613220,482.075226 445.891693,479.605072 
	C443.330170,470.835999 442.998230,461.527924 439.544678,452.959808 
	C437.395416,447.627472 435.476868,442.180328 431.463562,437.544067 
	C435.631165,454.044373 434.009460,470.508240 432.230347,486.997559 
	C430.422028,503.757446 423.120636,518.527893 415.453369,533.728271 
	C421.660950,535.040222 418.747101,538.103027 416.761475,540.588806 
	C412.722839,545.644714 408.420166,550.489685 404.277557,555.361267 
	C404.608582,557.537903 407.208893,556.004395 407.826660,558.300476 
	C404.105316,562.838135 400.135834,567.678345 395.883636,572.863342 
	C397.889832,573.199524 399.367737,571.226685 401.292694,573.184082 
	C398.723633,579.811157 393.436249,584.884521 388.936127,591.162659 
	C390.907928,591.007996 392.220917,589.259888 394.369080,590.570557 
	C393.266693,596.185852 387.917694,599.452087 385.853363,604.600098 
	C386.927368,605.684814 388.473938,603.932800 389.770996,605.521057 
	C389.066589,609.896545 386.210815,613.703125 384.574707,617.970215 
	C382.072723,624.495300 378.790558,630.732971 376.501312,637.322510 
	C375.511353,640.172119 371.665405,644.294617 377.955109,646.547668 
	C378.865326,646.873718 378.114441,649.008057 377.905548,650.323914 
	C377.284393,654.237183 375.171173,657.837646 375.385315,662.649475 
	C379.666229,654.694031 380.596039,646.304626 383.619812,638.570740 
	C389.298645,657.698303 380.650421,675.152954 376.872711,694.603149 
	C381.800659,689.565186 380.501923,683.167847 384.379761,678.994568 
	C387.379303,681.330933 386.211121,684.135010 385.797821,686.483276 
	C384.271179,695.156921 382.178680,703.737732 380.854584,712.438049 
	C379.914032,718.618103 378.990234,725.073730 384.066895,731.223206 
	C384.440094,723.110840 385.178864,715.683289 390.951233,710.165649 
	C393.572571,711.062195 393.254089,712.930298 393.230530,714.492432 
	C393.092468,723.645569 393.583405,732.793701 392.533295,741.952942 
	C391.554077,750.493103 393.135559,759.028381 395.629028,767.080811 
	C400.354187,782.340149 399.432281,797.671326 397.856628,813.112183 
	C397.481781,816.785339 397.604431,820.377625 397.848267,824.050537 
	C398.027466,826.749817 400.620941,830.754700 395.373413,832.035645 
	C395.050812,832.114441 395.025146,833.256592 394.792114,833.878113 
	C389.184906,848.836548 383.569366,863.791992 377.949799,878.745789 
	C377.715698,879.368835 377.466766,879.991760 377.159668,880.580811 
	C376.065430,882.679688 374.896790,884.922546 372.191193,884.951172 
	C369.472717,884.979980 368.226196,882.768005 367.170044,880.651550 
	C366.292145,878.892273 365.594727,877.043030 364.838013,875.281677 
	C364.282776,875.382507 363.852631,875.328003 363.697418,875.509033 
	C361.956726,877.540283 361.207428,881.042786 357.423065,880.101379 
	C353.992584,879.247986 353.674500,876.141113 353.242828,873.369751 
	C352.797791,870.512817 351.904999,868.558899 348.651917,867.765381 
	C345.108002,866.901001 344.080322,863.659973 343.721283,860.365479 
	C341.639832,841.266052 335.829742,823.456848 326.762909,806.449097 
	C314.611786,783.655762 308.520874,759.086853 310.928497,733.247864 
	C312.948517,711.568481 320.905487,691.485229 332.762299,673.259583 
	C342.685699,658.005981 350.635406,641.653442 360.184296,626.211670 
	C360.939545,624.990295 361.400055,623.586670 362.365906,621.454773 
	C355.976044,624.648376 350.155701,626.961121 343.892822,627.844116 
	C341.352692,628.202271 338.234741,629.638733 336.621094,626.694641 
	C334.858856,623.479492 338.120850,621.928223 340.032776,620.374451 
	C352.943970,609.882080 363.211609,596.958557 373.639923,584.176819 
	C374.134949,583.570007 374.470917,582.833435 374.897766,582.129578 
	C374.359741,581.842224 374.069580,581.544739 373.821045,581.576233 
	C370.754395,581.964539 367.130859,583.530701 365.307526,579.829529 
	C363.401764,575.960999 367.232605,574.207642 369.421661,572.247925 
	C381.231781,561.675354 391.299316,549.867065 396.940094,534.658875 
	C395.842255,533.789917 395.007355,535.166504 393.977783,535.218994 
	C391.815643,535.329163 389.846832,535.047363 389.041504,532.784607 
	C388.222534,530.483459 389.927551,529.374023 391.675476,528.672485 
	C398.577820,525.902039 402.970734,520.509277 406.456085,514.328918 
	C412.415131,503.762207 418.836090,493.413483 421.050629,481.134369 
	C422.726501,471.842041 420.093384,462.941956 419.179749,453.900757 
	C418.293396,445.129944 415.566650,436.669556 413.835999,428.039642 
	C412.821167,422.979340 410.496033,420.503082 405.344025,419.239746 
	C379.200287,412.828918 354.161285,403.408142 330.554718,390.372894 
	C323.788116,386.636444 317.997833,381.548859 312.604706,376.107452 
	C306.667480,370.117188 300.242218,364.854736 292.474182,361.572968 
	C281.903961,357.107269 273.926300,349.410553 265.781647,340.557129 
	C260.356842,358.071808 257.846344,375.587341 253.499664,393.080383 
	C250.607407,391.570862 251.083862,389.815094 251.326508,388.026978 
	C253.474319,372.199493 255.845215,356.384979 260.672668,341.134033 
	C262.483917,335.411957 260.018646,332.029663 256.341095,327.830627 
	C244.398224,348.027771 243.196808,371.775909 233.005081,392.520020 
	C230.350098,390.185303 231.568481,388.142822 232.055466,386.416565 
	C235.668976,373.607605 239.531006,360.869324 242.471359,347.876434 
	C243.885162,341.629120 246.737930,335.842834 250.033997,330.526489 
	C254.092560,323.980286 251.931290,318.631622 248.480865,312.160431 
	C234.912140,324.852020 226.239853,341.191254 212.750397,353.437103 
	C220.014572,338.214386 230.990097,325.527679 241.910461,311.057800 
	C223.226791,320.137390 205.772995,328.619263 187.398422,337.548615 
	C187.957397,332.821655 190.848083,332.221313 192.935532,330.943024 
	C209.161438,321.007111 227.264359,314.677887 243.457672,304.679443 
	C244.909485,303.783020 247.037079,303.530548 247.511063,299.904083 
	C227.331268,302.528015 208.314438,308.852753 187.956375,312.948425 
	C189.569275,308.987732 192.433777,308.956848 194.568069,308.362976 
	C209.953293,304.081940 225.273392,299.519287 241.006516,296.603729 
	C242.643860,296.300323 244.282471,295.964966 245.882675,295.511047 
	C247.372711,295.088379 247.895386,293.860443 247.938248,292.424072 
	C247.989868,290.694550 247.216492,289.575653 245.442993,289.240906 
	C243.972198,288.963318 242.507858,288.393250 241.040878,288.394043 
	C228.077408,288.401154 215.105057,286.340454 202.150452,288.512360 
	C200.543518,288.781738 198.896667,289.267578 197.139130,287.145264 
	C202.479355,284.697968 207.882812,283.923431 213.192719,283.861359 
	C223.834824,283.737000 234.519516,282.776642 245.128143,284.390503 
	C248.591568,284.917389 248.904724,282.421661 249.547028,280.233643 
	C250.408722,277.298401 252.251770,274.205170 248.031937,272.072510 
	C234.503967,265.235565 220.613373,259.904755 205.047058,260.995483 
	C202.151428,261.198364 202.147400,261.140930 199.484955,260.131287 
	C202.938171,256.204712 210.992752,256.138245 226.330109,259.575562 
	C235.475357,261.625183 243.972076,265.365173 252.186172,269.222534 
	C252.812836,268.796387 253.253983,268.665070 253.327942,268.421997 
	C258.481354,251.487152 272.771820,245.898788 287.505096,240.849289 
	C290.339935,239.877716 293.104828,238.656830 295.992157,237.890961 
	C315.007294,232.847061 328.198669,220.648956 338.306580,204.297546 
	C342.346405,197.762329 347.697937,192.113602 354.044281,187.692566 
	C358.827942,184.360153 360.854156,179.902588 361.729889,174.349579 
	C363.621216,162.356354 365.888855,150.426956 366.246338,138.236938 
	C366.299561,136.422501 365.901306,134.204529 369.031342,132.013168 
	C371.672424,147.699478 367.184204,162.308456 366.426697,178.102020 
	C372.043030,175.440796 376.812958,173.235443 381.526031,170.914673 
	C382.977997,170.199722 383.391235,168.727356 383.678192,167.173203 
	C385.971527,154.754623 388.330475,142.348190 390.647827,129.934006 
	C390.973328,128.190216 390.720001,126.210838 393.496368,124.921616 
	C395.141602,132.266281 392.763611,139.090012 391.939331,145.904587 
	C391.090271,152.923950 389.464325,159.849319 388.124268,167.108353 
	C392.966034,167.721481 396.494446,165.491516 400.308014,164.743591 
	C411.697510,162.509857 420.521912,156.973190 426.023010,146.312500 
	C429.180603,140.193375 434.602661,136.209290 441.155731,133.919937 
	C449.876526,130.873276 458.438751,133.060715 462.914825,141.089417 
	C466.958160,148.341995 472.227142,150.444550 480.013611,149.754028 
	C495.128204,148.413605 510.309875,148.079987 525.427124,149.713699 
	C552.306824,152.618607 578.923279,156.772202 603.414490,169.206741 
	C605.966064,170.502197 608.055115,170.405014 610.483765,169.435760 
	C618.229736,166.344376 626.238708,164.084839 634.292297,161.954300 
	C640.194031,160.393021 646.222778,160.046753 652.139343,161.024170 
	C662.420166,162.722580 669.189331,173.245956 667.831726,184.882629 
	C666.178284,199.054977 661.122742,212.002670 652.893066,223.604034 
	C650.603333,226.831909 650.436951,229.288956 652.526367,232.568970 
	C668.791077,258.102325 677.463562,286.961273 688.340698,314.852295 
	C688.986633,316.508606 689.829346,318.256470 688.307251,321.045593 
	C683.743042,317.648773 681.492554,312.645477 677.809326,308.055176 
	C681.397339,322.991394 688.058594,336.372711 691.488525,350.440887 
	C689.276978,352.131775 688.281128,349.548798 686.412964,350.450256 
	C685.695251,358.185394 690.745789,365.218353 690.751282,373.862640 
	C685.830933,371.260925 685.610657,366.559875 682.757263,362.995148 
	C684.682495,374.284180 690.558594,383.869904 692.205322,394.929138 
	C687.168396,396.143341 686.434021,391.429321 683.557251,389.656097 
	C682.788147,393.945190 684.315979,397.947479 684.276428,402.037201 
	C684.147339,415.368591 684.037537,428.705444 684.275330,442.033844 
	C684.588562,459.590240 686.600281,476.887482 693.653870,493.238647 
	C694.178650,494.455139 694.592407,495.746216 694.856506,497.043549 
	C695.725708,501.313599 693.828674,503.122162 689.597595,501.938965 
	C687.233459,501.277924 684.967163,500.267151 681.597595,499.022827 
	C684.061157,512.328125 686.424377,524.811951 688.673279,537.316223 
	C690.908020,549.742249 696.422913,561.242126 699.415649,573.489014 
	C680.522583,557.463013 673.371216,535.911255 669.215637,513.222290 
	C667.819641,516.870117 668.979919,527.087219 672.131287,537.653442 
	C674.616211,545.985229 677.674194,554.006897 682.691772,561.251526 
	C687.553650,568.271179 693.844666,574.365845 697.248718,582.299927 
	C694.547180,584.678223 693.617249,581.035217 691.275391,581.453064 
	C695.908264,596.511353 701.496582,611.009888 709.670166,624.444336 
	C712.873230,629.708923 715.953308,635.050720 718.974731,640.421875 
	C719.862488,641.999878 720.720337,643.892822 718.921448,645.445312 
	C717.132019,646.989685 715.458801,645.755188 713.910828,644.814392 
	C711.264709,643.206482 708.850464,641.142273 705.087769,640.594543 
	C710.370239,646.284607 714.912354,651.983337 721.199463,655.896057 
	C722.787292,656.884155 724.463257,658.163452 723.120422,660.306213 
	C721.990234,662.109619 720.064819,662.208679 718.219604,661.419800 
	C714.710327,659.919434 711.244690,658.317017 706.403198,656.148987 
	C711.469910,663.983398 716.477417,669.707397 724.183594,672.849304 
	C726.367371,673.739807 730.743225,673.589417 729.948120,676.958191 
	C729.093628,680.578796 724.901062,679.376343 722.110535,679.135376 
	C716.823242,678.678833 711.658142,677.377991 705.342834,674.778137 
	C711.278625,690.513611 717.680603,704.465393 728.867432,715.721497 
	C725.012329,719.755249 724.573059,719.620361 714.107117,711.376709 
	C713.222290,711.942566 713.868286,712.560974 714.172424,712.984741 
	C721.824097,723.645264 725.982117,736.522827 735.403992,746.091980 
	C738.697876,749.437317 737.648499,751.368408 730.896240,755.006470 
	C738.291443,765.252014 744.489380,776.254028 753.341003,785.372986 
	C754.837952,786.915161 756.150757,788.661926 757.377747,790.432556 
	C758.483704,792.028625 758.803528,793.900330 757.659241,795.597595 
	C756.450012,797.391052 754.609741,797.299622 752.709961,796.819519 
	C750.999390,796.387268 749.256653,796.082642 746.916199,795.593994 
	C754.823975,807.083557 765.886841,814.237427 776.782471,822.443787 
	C772.337769,824.928162 769.601379,821.657227 766.211731,821.536438 
	C765.892456,823.592224 767.452576,824.517029 768.420898,825.695557 
	C777.516968,836.766113 786.681396,847.783203 794.875305,859.557922 
	C795.731201,860.787842 796.545166,862.051331 797.304993,863.342590 
	C798.151917,864.781860 799.248657,866.436951 797.667847,867.858643 
	C796.248718,869.135071 794.966675,867.735168 793.670105,867.007996 
	C782.636108,860.819519 771.788147,854.348694 761.832458,846.107300 
	C761.104614,848.482544 763.923828,849.857849 762.641968,852.299133 
	C758.720703,853.708191 756.979553,849.437378 753.480713,848.365662 
	C754.820984,853.553650 758.225830,857.419006 760.552612,861.820129 
	C761.369019,863.364258 763.181580,865.044067 761.584106,866.759644 
	C760.205933,868.239563 758.083984,867.534302 756.391357,866.833069 
	C753.365601,865.579529 750.418762,864.135498 747.008118,862.573853 
	C747.361816,865.236084 748.645508,866.921753 749.992493,868.539856 
	C754.893982,874.428162 759.857483,880.265076 764.734070,886.173828 
	C765.915649,887.605469 768.298584,889.005310 766.503052,891.193604 
	C764.922363,893.119995 762.754211,891.781128 760.952209,891.065552 
	C754.733521,888.596375 748.875305,885.468018 743.507446,881.425842 
	C740.989380,879.529785 738.297485,877.864563 735.309631,875.840881 
	C733.216980,880.678894 730.099365,879.467468 726.878479,877.510437 
	C724.161499,875.859497 721.374146,874.466125 717.499390,875.023376 
	C720.156128,879.493896 723.886963,882.408752 727.630432,885.303772 
	C728.815613,886.220337 730.073303,887.042664 731.273743,887.940247 
	C732.333923,888.732849 733.742737,889.524292 733.139465,891.098694 
	C732.395813,893.039001 730.527344,892.906555 728.869934,892.723450 
	C721.555969,891.915466 714.400757,890.517273 707.719299,887.208496 
	C705.869446,886.292480 704.146118,884.717285 701.230469,885.355164 
	C702.751465,892.350708 704.280884,899.264282 705.745728,906.191528 
	C706.226685,908.465881 706.676331,910.763428 706.884766,913.073364 
	C707.035645,914.745728 706.734131,916.558228 704.980164,917.359192 
	C702.931152,918.294800 701.913757,916.595520 701.001038,915.257080 
	C695.708374,907.495361 688.863464,901.100952 682.568054,894.224792 
	C681.123291,892.646790 679.480286,891.250305 677.001404,888.885986 
	C678.118469,892.460327 678.864014,894.845886 679.643494,897.339966 
	C677.196106,899.183533 675.060547,898.081909 673.005066,897.140015 
	C666.136536,893.992371 661.183655,888.600342 656.519653,882.886658 
	C654.550232,880.473938 652.817871,877.826843 649.808167,875.720154 
	C648.561401,878.872620 650.211243,880.838867 651.424438,882.851379 
	C655.293884,889.270081 659.222290,895.653259 663.098145,902.068115 
	C664.043030,903.632019 665.232239,905.334656 663.596497,907.058777 
	C661.958557,908.785156 660.065918,907.721130 658.548462,906.838623 
	C652.497559,903.319519 646.581726,899.583435 641.305481,894.927673 
	C640.084229,893.850159 639.089294,892.429199 636.937866,891.951965 
	C636.303833,895.491089 637.977600,898.695801 638.066772,901.997131 
	C638.147522,904.985657 640.057373,909.250183 636.876099,910.664917 
	C633.824097,912.022217 632.121399,907.826782 630.278809,905.648926 
	C626.713501,901.435059 622.977417,897.401123 618.663025,893.974365 
	C614.751587,890.867676 611.552002,891.836670 609.677795,896.451172 
	C609.303711,897.372314 609.121338,898.369446 608.786987,899.308960 
	C606.496948,905.743835 604.978638,906.082031 599.940186,900.878723 
	C598.589600,905.278320 599.667725,909.539612 599.348572,913.695374 
	C599.233948,915.187805 599.323792,916.694763 599.254333,918.192078 
	C599.189636,919.587769 598.736145,920.903992 597.380981,921.478638 
	C595.848267,922.128601 594.913208,920.901428 593.989075,919.976135 
	C588.984253,914.965027 585.213684,909.070312 582.131042,902.758423 
	C577.985596,894.270142 574.051575,885.678650 569.904236,876.871277 
	C566.114624,878.914368 564.723816,882.818726 561.739197,885.115051 
	C559.780640,886.621765 557.992126,888.919617 555.206665,887.410950 
	C552.214417,885.790161 552.806702,883.005432 553.616272,880.345459 
	C558.190430,865.316528 560.632324,849.902649 561.874939,834.279480 
	C562.056396,831.998596 562.450012,829.650269 561.171997,826.941101 
	C557.434631,831.290039 559.644409,837.393677 556.189636,842.135559 
	C553.513550,838.038208 555.211365,833.434204 552.434204,829.236694 
	C550.081482,839.599487 551.575500,850.494507 544.142578,860.144165 
	C540.929138,850.183350 542.053711,840.606506 539.186646,830.343567 
	C531.714966,841.114563 531.432617,853.253662 526.175476,864.011047 
	C523.421143,860.551941 524.888428,856.425354 522.110046,853.631042 
	C519.395508,854.495117 517.978088,856.838196 516.350952,858.820862 
	C510.527649,865.916687 505.668945,873.701965 500.555756,881.301575 
	C496.983063,886.611633 494.570984,892.415771 493.440521,898.750366 
	C493.122070,900.534790 492.667542,902.352539 491.919220,903.992432 
	C488.894897,910.619629 484.964172,911.640991 478.696686,907.223145 
	C477.167328,911.332214 475.954620,915.334717 476.761292,919.670959 
	C477.223694,922.156555 477.513367,924.640564 476.987274,927.113586 
	C475.750916,932.925598 471.456055,934.388306 467.285217,930.134277 
	C461.526581,924.260742 457.219238,917.319519 453.868927,909.803894 
	C452.946167,907.733948 452.096649,905.631226 450.870148,902.731873 
	C450.420074,905.371643 450.284698,907.149902 449.792480,908.823181 
	C449.042511,911.372498 448.316101,914.274109 444.951843,914.386658 
	C441.936066,914.487610 440.686462,912.029297 439.782623,909.673767 
	C436.321716,900.654175 433.205811,891.512695 431.678345,881.936707 
	C431.103668,878.333679 430.908112,874.662842 430.677124,871.014221 
	C430.392242,866.514526 429.970734,862.231567 427.128998,858.296021 
	C424.163849,854.189453 424.246368,849.103333 424.791870,844.282043 
	C426.757843,826.906799 428.731598,809.463867 436.866730,793.599854 
	C446.440613,774.930176 456.160156,756.336670 468.176971,739.046387 
	C487.438354,711.332397 504.473358,682.391541 516.110962,650.535645 
	C517.258057,647.395752 518.362610,644.295959 518.291992,640.862000 
	C518.259644,639.285889 518.165588,637.459412 520.682190,636.235535 
	C525.224060,643.290161 521.743774,651.773865 524.707031,658.890564 
	C527.963623,654.645203 525.717529,648.971558 528.480652,644.355530 
	C532.823059,653.799377 531.907471,663.898071 532.524414,674.470276 
	C535.630066,669.891418 536.370239,665.055969 537.352417,660.407654 
	C538.414795,655.379578 539.175293,650.252075 539.573425,645.129517 
	C539.959778,640.157227 539.518188,635.124390 539.810852,630.139954 
	C540.104187,625.144836 538.297546,620.402344 537.857056,614.037048 
	C544.954163,619.690063 544.120117,627.308899 547.089966,634.195679 
	C550.032654,622.308716 548.474854,611.006714 548.027283,599.394226 
	C552.595764,600.631714 552.647522,604.294434 553.074890,607.066711 
	C554.238220,614.613525 554.831360,622.248352 555.708130,630.382629 
	C557.644592,627.379700 558.496948,624.426514 558.714905,621.177612 
	C559.840576,604.400391 557.650940,587.965027 553.726929,571.700623 
	C553.455505,570.575623 553.183044,569.448547 552.987732,568.309326 
	C552.941101,568.037170 553.202881,567.712158 553.424072,567.157410 
	C558.512085,567.616821 560.090210,572.538696 563.342041,575.296875 
	C565.997620,571.019836 567.033386,572.504028 562.115967,559.253662 
	C564.688538,558.756042 565.556396,557.529724 565.099609,554.553101 
	C564.220520,548.823975 563.084045,543.421875 558.710327,539.230957 
	C557.977722,538.528992 557.473083,537.653564 558.053833,536.004333 
	C569.653748,539.041687 575.579163,547.998596 580.995911,557.686218 
	C580.838989,552.331970 577.541565,547.767090 577.870361,542.033936 
	C582.558838,542.681641 583.027527,538.157837 585.731445,535.740662 
	C583.011108,533.955139 579.595398,534.218079 577.231567,531.328430 
	C574.062439,527.454285 573.683228,527.085632 578.403809,524.805420 
	C582.995300,522.587524 588.024048,521.172546 592.952820,516.835938 
	C583.806824,518.036072 576.127625,521.394104 567.751709,520.331421 
	C578.257324,511.515533 591.413757,507.033386 603.165710,498.407013 
	C596.318176,498.407013 590.779053,498.436249 585.240417,498.396423 
	C581.746521,498.371277 579.774719,497.169800 581.807129,493.262054 
	C577.250122,490.598114 572.656738,494.187378 568.228638,493.121460 
	C567.321838,490.168427 569.593872,489.505280 571.146301,488.454773 
	C577.815186,483.942139 585.225830,480.914948 592.610413,477.841461 
	C597.528687,475.794434 602.252747,473.395935 606.454956,469.393799 
	C596.963562,470.577148 587.472168,471.760498 577.980835,472.943878 
	C577.832092,472.507874 577.683411,472.071869 577.534729,471.635864 
	C581.510864,469.748505 585.487000,467.861145 590.181213,465.632965 
	C583.546204,465.042175 577.900330,468.569885 570.968567,466.512146 
	C574.915283,461.316772 581.523499,461.615753 585.649658,457.522888 
	C579.902832,454.973785 574.106140,457.343323 568.342468,456.262787 
	C578.275879,445.098083 593.189819,442.682037 605.439514,434.128662 
	C595.762268,433.802429 586.596497,435.325256 577.314270,432.556610 
	C579.524353,428.666840 583.644409,430.101349 586.440125,428.002838 
	C580.684875,425.858765 574.336121,426.964722 568.608459,423.712372 
	C579.405029,421.185181 590.479553,419.781982 601.297913,414.881622 
	C593.755310,411.926056 586.628235,411.907410 579.066406,413.159973 
	C579.851318,408.926544 582.745911,407.776215 585.411743,406.618591 
	C593.721863,403.010162 602.658142,401.669373 611.426636,399.751099 
	C613.195984,399.364044 615.042419,399.355194 617.343140,397.699707 
	C608.480835,395.332306 599.611328,395.860748 591.178101,393.120422 
	C593.091431,389.479584 596.679565,391.656982 598.662598,389.640930 
	C595.904785,386.769135 591.050354,388.243866 588.522339,384.344452 
	C592.956177,382.297852 597.680176,384.767609 601.973877,382.679718 
	C601.272034,379.553650 597.370972,380.594055 596.406433,377.802368 
	C597.582764,375.368408 600.029724,375.698914 602.263977,375.692871 
	C611.585022,375.667633 620.915527,375.892303 630.953186,374.226410 
	C622.679443,371.364532 615.037598,368.721252 606.573181,365.793427 
	C610.588318,362.441620 614.382812,363.917511 618.740845,363.672668 
	C613.835083,361.354004 609.701965,359.400513 604.475708,356.930359 
	C614.782043,353.451019 624.385315,357.108063 634.628235,354.277405 
	C624.474243,347.289337 614.297058,343.596985 601.420105,344.015808 
	C607.352356,337.663513 614.306152,340.276001 620.340576,338.239990 
	C616.835632,333.521149 610.383179,333.939789 607.093628,329.618439 
	C609.905945,325.672455 614.414429,330.363800 617.400452,327.069794 
	C615.328308,324.288422 610.891113,326.011780 609.319580,322.361298 
	C610.935791,319.899536 614.197998,321.193726 616.309143,319.730408 
	C617.645203,318.804382 619.620300,318.381989 619.450562,316.305267 
	C619.293457,314.384827 617.505005,313.863556 616.050293,313.023529 
	C613.502441,311.552185 609.958130,313.486053 607.034058,309.707886 
	C615.174927,307.030579 623.694092,305.675720 628.983459,297.941681 
	C619.944458,301.895599 611.197205,301.246338 601.118347,298.025269 
	C606.686707,294.494293 612.585754,294.546814 616.926575,290.798309 
	C611.443604,287.515533 604.707886,293.247253 599.549194,287.631500 
	C603.883911,285.610443 608.737427,285.748993 612.951782,281.196960 
	C602.765869,281.999939 593.945862,287.537018 583.923706,283.501556 
	C587.949402,276.488800 600.152771,273.529419 593.447510,262.342010 
	C589.309937,265.645966 587.446899,271.394318 581.541321,272.632965 
	C580.705139,269.606689 582.982056,266.786438 581.042236,263.825592 
	C575.320435,266.273895 571.968079,272.181946 565.668518,275.360657 
	C565.890259,268.880188 569.844421,264.777496 571.583496,258.205231 
	C564.362488,266.064423 557.117249,271.698822 548.165833,275.592957 
	C546.164917,269.617188 551.911621,265.039612 550.067261,258.340851 
	C539.087341,271.564819 524.280090,272.471802 508.098785,273.614258 
	C512.320374,266.801910 520.379883,267.745758 524.278809,261.892151 
	C519.705078,262.143677 516.281311,264.772949 512.323669,265.384003 
	C509.010559,265.895538 505.467865,267.700531 501.738464,263.692993 
	C496.545959,264.426422 490.603607,266.952423 484.773987,269.855591 
	C483.371826,270.553864 481.617493,271.790710 480.322113,269.871918 
	C479.291809,268.345795 480.596863,266.988556 481.508972,265.869476 
	C483.612091,263.289185 485.857178,260.824554 488.045380,258.313568 
	C489.083344,257.122498 490.579895,256.152802 489.985992,252.869064 
	C479.399841,259.786804 471.278992,269.666473 458.859802,272.269745 
	C464.968353,273.274963 469.463379,267.886780 475.566895,268.199005 
	C476.404907,270.845093 474.677643,271.949860 473.070251,273.054993 
	C466.816010,277.354889 459.656738,280.187897 452.347717,278.779968 
	C443.071472,276.993103 434.245544,282.018097 425.199585,278.499664 
	C423.405914,284.240997 427.085754,287.663147 429.132172,292.311005 
	C419.981812,294.040009 410.749054,291.943085 402.050232,295.920990 
	C403.391602,297.715668 405.068573,297.514465 406.623566,297.568665 
	C426.587189,298.263977 446.548828,298.987183 466.368256,301.739655 
	C468.398804,302.021637 470.805756,301.602570 471.815460,304.562134 
	C468.804047,306.471741 465.609772,305.397583 462.669464,305.024872 
	C443.622620,302.610657 424.507294,302.013794 405.340027,302.435516 
	C404.509918,302.453735 403.673340,302.515594 402.854736,302.648987 
	C401.092957,302.936127 399.747742,303.508606 399.730164,305.763489 
	C399.712769,307.998199 400.921997,308.523010 402.763733,308.887817 
	C415.656708,311.441406 428.582428,313.856049 441.407562,316.718842 
	C457.816650,320.381683 474.112396,324.527405 489.845520,330.584412 
	C491.641510,331.275787 493.780090,331.596741 494.541351,334.151611 
	C492.860443,336.112457 490.947021,334.883881 489.195496,334.387543 
	C461.975464,326.674255 434.617767,319.568481 406.674988,314.890076 
	C403.459473,314.351685 401.120148,314.332642 399.819366,317.771820 
	C398.286041,321.825928 401.446930,322.642578 403.959229,323.775970 
	C419.913330,330.973450 435.484436,338.936462 450.951965,347.112732 
	C462.634369,353.288177 473.212189,361.134460 483.893219,368.821442 
	C485.575378,370.032074 487.441376,371.303680 487.583984,375.328918 
	C473.587067,367.390442 461.483398,358.165924 448.017883,351.330231 
	C434.581818,344.509430 421.365540,337.203796 406.956360,332.112488 
	C415.463440,345.658539 428.860809,355.233307 436.981171,369.719055 
	C433.529022,369.937836 432.459930,368.011475 431.062866,366.721832 
	C416.245483,353.044159 404.030487,336.789307 388.546997,323.767426 
	C387.646698,323.010254 386.706909,322.165680 387.098419,320.823303 
	C387.537384,319.317993 388.843811,318.959595 390.221680,318.789917 
	C391.347595,318.651245 392.579315,319.061005 393.776245,317.973419 
	C395.917450,311.640137 386.953674,313.782837 386.716248,309.291779 
	C387.201294,307.792938 388.435242,307.884979 389.591492,307.769928 
	C391.111298,307.618683 393.360901,308.478271 393.429016,305.889496 
	C393.491852,303.501495 391.839325,302.537415 389.520203,302.250977 
	C387.139252,301.956879 384.474518,301.922852 383.194427,299.099426 
	C384.750397,296.440491 388.198883,298.793457 389.847168,296.400970 
	C389.851624,293.925537 387.785858,292.829376 386.020874,292.566101 
	C378.088104,291.382690 372.903351,284.476013 365.192474,282.882477 
	C363.118591,282.453949 361.232544,281.183289 359.189789,280.514374 
	C357.726746,280.035309 356.334930,280.041504 356.689087,277.715973 
	C357.009583,275.611511 354.774872,275.816559 353.509399,275.349579 
	C349.504913,273.872009 345.454376,272.519257 341.451843,271.128693 
	C342.403778,267.739960 345.307953,269.735504 346.609894,268.226685 
	C346.896759,266.613373 344.598877,266.491638 344.778992,264.740906 
	C345.659973,262.778015 348.666718,264.365143 349.790405,261.851196 
	C343.422668,257.665344 335.529297,259.445740 328.952423,256.896973 
	C323.113861,254.634338 318.026825,250.432358 312.134949,246.794281 
	C315.910522,243.799728 320.259552,242.597229 324.219391,240.799332 
	C328.009491,239.078461 330.966248,236.849380 333.165344,233.244293 
	C335.675232,229.129730 338.577057,225.233765 342.253754,222.009659 
	C342.872406,221.467163 343.830414,220.807190 343.856201,220.170105 
	C344.160461,212.656433 350.448517,211.277435 355.534180,208.977859 
	C361.627808,206.222519 366.302643,201.492111 372.318237,198.660645 
	C370.835571,196.319931 368.716644,197.745041 367.148010,196.357437 
	C367.835510,193.681198 370.318451,192.821075 372.494080,192.146088 
	C381.482971,189.357269 389.959656,185.563599 397.515137,179.918533 
	C405.605927,173.873535 415.436127,173.011322 424.746490,170.803375 
	C440.745026,167.009384 456.872467,163.758911 472.903290,159.846069 
	C467.778015,158.997696 462.734589,159.365768 457.664246,160.315826 
	C436.384979,164.303070 415.194061,168.659256 394.649597,175.633087 
	C390.679291,176.980820 385.993958,177.677963 385.009460,183.858887 
	C382.033722,179.964706 379.516266,181.582184 376.940674,183.188034 
	C371.071899,186.847153 364.278290,189.536774 362.825500,197.593201 
	C362.610138,198.787430 361.770386,200.165344 360.188049,200.280624 
	C357.647186,200.465775 358.164886,197.543228 356.595032,196.562592 
	C353.992645,196.765884 352.730011,198.915573 351.178101,200.533737 
	C342.599487,209.478607 336.085632,220.012711 328.911682,230.018661 
	C325.390289,234.930206 321.246490,238.061798 315.352386,239.325256 
	C304.534027,241.644257 294.687561,246.520828 283.989258,251.360092 
	C289.565491,254.376343 294.951080,255.356827 300.084442,256.973694 
	C307.901215,259.435791 315.518188,262.218048 322.345734,266.914062 
	C329.534027,271.858215 331.532898,279.504730 327.447540,287.386902 
	C323.570068,294.868011 317.661682,299.954742 309.527496,302.277252 
	C304.411163,303.738129 299.277588,305.181671 294.080688,306.304047 
	C289.738373,307.241852 288.926208,309.300354 290.236725,313.441833 
	C294.975952,328.418671 304.596649,339.446503 318.144135,346.659271 
	C336.187836,356.265778 354.117615,366.461823 374.966339,369.093292 
	C383.260651,370.140198 391.536407,371.003998 399.590485,367.707123 
	C400.987305,367.135376 402.522949,366.599121 403.931854,367.461426 
	C408.627045,370.335052 413.170959,373.423340 416.517609,377.920441 
	C417.008514,378.580048 417.307129,379.396576 416.286957,380.844940 
	C408.160980,374.782501 399.567902,378.863434 391.157349,379.557709 
	C390.337097,382.283295 393.561005,383.855927 391.163177,387.097015 
	C386.026093,377.242767 376.437714,378.857971 367.589905,377.178619 
	C368.831085,380.504059 373.089600,381.446686 373.164978,385.679840 
	C369.058319,384.926666 366.114197,382.183472 365.304108,379.633972 
	C363.359467,373.514191 358.824554,374.823853 354.515900,373.963806 
	C354.169861,377.146759 358.350830,378.467194 356.543274,381.769836 
	C353.116638,380.902527 351.711792,378.138489 350.799072,375.207306 
	C350.291748,373.578156 349.669891,372.563293 347.993042,372.172638 
	C332.047516,368.457886 318.568146,359.968201 305.700714,350.295044 
	C305.174896,349.899719 304.581757,349.575226 303.979706,349.308594 
	C303.705780,349.187286 303.333557,349.287994 303.005920,349.285522 
	C302.719360,355.369324 324.086639,375.468628 340.172302,385.336029 
	C355.529572,394.756622 373.259857,397.352966 389.648407,404.067261 
	C390.677612,402.369385 388.552704,400.680939 390.611481,398.741547 
	C395.678131,399.693817 398.810120,405.366913 404.748444,405.844574 
	C405.102325,404.520203 402.131592,403.429596 404.059418,400.970642 
	C410.510132,403.002869 415.081665,409.721252 422.788666,410.020996 
	C420.782257,406.778900 416.999115,404.673798 416.073212,399.195892 
	C421.488068,401.713867 424.003021,406.454346 429.017456,407.802155 
	C428.854218,405.679688 425.754059,404.610870 427.346191,401.723846 
	C435.924438,403.084778 443.101776,408.600128 451.447662,411.028900 
	C447.757080,407.672211 442.396515,406.623444 439.547760,401.966797 
	C452.028351,403.854370 462.987793,410.181274 475.655884,414.504608 
	C472.581024,408.899353 466.896057,407.144806 464.607941,401.697876 
	C474.537842,403.180450 482.872498,410.328217 493.377228,410.314575 
	C490.966888,406.864441 485.885437,406.656006 483.680176,401.645813 
	C500.351837,401.954193 509.666321,415.699402 524.599182,420.077576 
	C520.632446,422.505524 518.106628,420.669617 514.849731,420.878815 
	C518.469360,425.046997 521.803955,428.886963 525.138550,432.726898 
	C524.775940,433.269989 524.413330,433.813080 524.050720,434.356140 
	C514.423950,431.110748 507.593170,422.066925 497.201630,419.936218 
	C501.524139,425.076904 508.224426,427.865631 511.446533,435.010773 
	C504.381409,435.451050 499.954559,430.557892 493.736847,429.490021 
	C495.657623,435.534332 501.006531,438.924774 504.047089,445.078735 
	C498.025635,444.582458 494.995331,441.161835 491.676880,438.453766 
	C488.228699,435.639832 485.486206,431.945923 480.445770,429.679871 
	C484.376160,439.280945 491.078827,447.004242 491.630951,457.308411 
	C484.746796,445.470734 476.718658,434.737244 465.627258,426.486938 
	C472.457825,436.846252 479.848572,446.825653 486.366241,457.758026 
	C482.831787,458.981140 481.213135,456.641907 479.579529,455.063721 
	C473.690460,449.374542 468.894836,442.741364 463.883942,436.298065 
	C462.168030,434.091644 460.325256,431.983856 458.032684,430.110077 
	C464.113739,443.093658 471.429230,455.487823 474.967316,469.639221 
	C467.228424,463.007507 464.947632,452.572449 457.558960,444.842834 
	C457.837372,450.376709 460.708008,455.099945 459.021454,460.404022 
	C454.557312,459.994324 455.372070,455.626190 453.159088,452.906891 
	C450.555450,444.904327 447.173584,438.110260 441.729828,432.449280 
	C446.762177,438.614532 448.875397,446.352356 453.020447,452.994171 
M476.492493,747.425537 
	C452.389252,776.680176 433.246796,822.899780 436.317810,832.629089 
	C438.447906,830.934265 438.858887,828.377197 439.616577,826.049622 
	C447.048462,803.219055 456.312347,781.226990 469.003693,760.756165 
	C471.795349,756.253296 475.121490,752.039246 477.526703,746.603760 
	C489.988922,728.355530 502.435089,710.091980 512.998596,690.647156 
	C515.680542,685.710388 516.569214,680.204590 517.085266,674.165710 
	C513.063232,682.189209 509.484833,689.851379 505.436615,697.256653 
	C501.371918,704.692078 496.740295,711.815186 492.536469,719.177612 
	C487.268036,728.404480 482.182343,737.735657 476.492493,747.425537 
M481.275269,170.873627 
	C471.918427,170.497543 464.205017,174.835159 457.536346,180.503494 
	C454.742645,182.878143 452.327942,183.584763 449.170868,184.065857 
	C449.063995,180.706940 452.622437,179.754028 452.923218,176.672256 
	C450.411530,176.841431 449.116577,178.725250 447.423523,179.867828 
	C446.059906,180.788055 444.424988,182.776733 443.184753,182.050629 
	C439.307953,179.780914 437.904633,182.928787 435.872223,184.763657 
	C433.531219,186.877136 431.200806,189.013931 429.015198,191.284424 
	C427.201538,193.168579 425.641693,193.007828 424.245422,190.697525 
	C421.831787,193.446167 418.880829,194.509186 416.389923,196.028107 
	C411.142029,199.228256 407.198273,204.658508 404.087402,211.722610 
	C409.109680,209.154221 412.636108,206.706299 415.741241,203.713654 
	C425.840302,193.980377 437.841797,188.068878 451.611969,185.691589 
	C453.449188,185.374405 455.153809,184.856979 456.751465,183.919907 
	C464.914612,179.132004 473.300842,174.777710 482.779541,170.912170 
	C491.092865,169.844635 498.092529,165.471024 505.429230,161.942108 
	C497.436554,164.493134 488.821503,165.439636 481.275269,170.873627 
M582.149536,605.741821 
	C578.970032,613.525269 579.391357,616.949646 584.527649,620.777283 
	C587.036438,622.646851 589.788696,624.622559 592.730652,625.369934 
	C596.512695,626.330872 600.738892,628.728760 604.488159,625.064209 
	C609.727295,619.943359 615.335449,615.344666 621.619263,611.511780 
	C625.027527,609.432983 626.559753,606.271729 624.907166,602.096802 
	C624.055725,599.945862 623.732178,597.590698 622.946777,595.408081 
	C620.785645,589.401917 611.498047,582.159729 606.802795,583.399292 
	C596.904297,586.012390 587.112122,589.077271 584.209473,600.905518 
	C583.858032,602.337952 583.064697,603.661804 582.149536,605.741821 
M599.090820,193.582230 
	C601.327393,191.586502 603.443420,189.432297 605.821350,187.622269 
	C616.459595,179.524719 627.774414,173.128845 641.792175,173.589783 
	C647.135498,173.765488 650.528931,176.284988 652.187134,181.307922 
	C654.636597,188.727753 653.901062,196.132339 649.897522,202.506851 
	C637.734253,221.873672 625.307983,241.163574 602.945190,250.656128 
	C600.112000,251.858780 598.987549,253.983475 599.330505,257.036621 
	C599.982727,262.842773 608.635620,269.301208 614.983887,268.239716 
	C611.781494,264.122681 610.756348,259.830078 614.068665,255.337128 
	C612.042358,254.876358 609.843689,257.007782 608.513855,254.425812 
	C608.513367,253.050980 609.304077,252.212036 610.203430,251.431824 
	C624.156433,239.327347 637.961670,227.210434 648.304077,211.503937 
	C652.792847,204.687134 656.603516,198.035446 658.119751,190.003937 
	C660.604187,176.844101 650.657166,166.707870 637.623352,169.522781 
	C623.164551,172.645447 609.613770,177.894424 597.567871,186.763077 
	C588.864624,193.170761 580.716797,200.074173 573.364136,209.823608 
	C578.077454,207.610367 580.930969,205.151428 583.766113,202.642548 
	C584.997192,201.553131 587.029541,199.599533 587.931458,200.509094 
	C591.091797,203.696381 592.086731,200.154724 593.622864,199.000000 
	C595.466431,197.614212 596.950745,195.750580 599.090820,193.582230 
M269.218079,306.705200 
	C261.975677,304.150055 258.814331,297.674805 255.179337,290.791901 
	C251.322083,309.780334 270.548187,342.723145 288.119873,347.305756 
	C287.762177,342.191833 291.795898,337.571106 290.849548,333.190521 
	C289.521973,327.044952 285.346863,321.603149 283.624847,315.590271 
	C281.846863,314.974609 280.649597,317.444427 278.804657,315.233185 
	C281.238770,308.202454 275.764587,308.042603 270.915161,307.263885 
	C270.588898,307.211487 270.272369,307.098602 269.218079,306.705200 
M426.885712,239.839798 
	C427.391296,242.573746 427.397095,242.581268 429.659760,240.841095 
	C435.491119,236.356216 438.312683,229.491714 442.929291,224.039154 
	C455.816711,208.818192 471.681366,209.195267 483.253967,225.085571 
	C484.446899,226.723541 485.874054,228.060181 487.490967,229.276245 
	C490.039948,231.193329 492.525818,231.735565 495.715363,228.989838 
	C491.649750,228.764191 493.068695,225.988998 493.132660,224.112839 
	C491.679749,222.970718 489.745209,224.010269 488.846375,222.307419 
	C489.112091,219.365753 492.831360,219.648117 493.802063,217.147293 
	C491.146179,216.028122 487.724396,218.934998 485.737061,215.772781 
	C485.942383,213.252167 488.721375,213.474854 489.338898,211.606003 
	C487.450195,210.309250 484.966370,212.145752 483.415405,210.541519 
	C481.959686,208.530060 484.949707,207.071457 483.377228,204.730377 
	C478.296112,205.502319 474.102966,201.236740 468.146210,202.172485 
	C452.697998,204.599228 440.125397,210.381226 433.731995,225.766663 
	C431.818329,230.371796 429.362854,234.751785 426.885712,239.839798 
M339.268860,680.708923 
	C336.554626,685.483887 333.748047,690.209106 331.144318,695.043640 
	C324.677795,707.050293 323.221680,720.216736 321.846832,733.529236 
	C319.585297,755.427856 326.065735,774.669495 338.159210,792.454590 
	C337.818298,790.708679 337.146942,789.071167 336.492523,787.426941 
	C329.954437,771.000366 326.135651,753.959167 327.175873,736.276123 
	C328.363617,716.086060 334.514771,697.145142 343.711243,679.150330 
	C346.780121,673.145508 349.395569,666.908875 352.218262,660.778198 
	C352.018921,660.687988 351.819580,660.597839 351.620239,660.507629 
	C347.616760,667.026672 343.613281,673.545715 339.268860,680.708923 
M527.480774,815.966675 
	C530.093079,814.222229 532.119019,810.788757 535.176086,810.702454 
	C542.836365,810.486145 548.309387,805.943420 553.754395,801.834534 
	C558.231201,798.456238 561.065857,793.291870 562.567200,787.079773 
	C559.573730,788.990845 558.930603,792.546265 556.443054,793.168884 
	C553.860535,792.674561 556.467468,790.356567 554.415710,789.980408 
	C525.286255,806.785950 507.331238,828.618896 504.545959,851.498657 
	C508.560577,844.879028 512.010498,839.071289 515.580078,833.338196 
	C519.169800,827.572632 521.912109,821.230408 527.480774,815.966675 
M297.872986,264.372040 
	C291.369965,262.938873 285.042755,261.242615 279.277161,257.556885 
	C274.244019,254.339401 265.393341,258.511200 263.271057,264.735748 
	C275.939911,268.054352 288.571075,271.163177 302.042877,266.934753 
	C300.878113,264.971954 299.622528,264.928284 297.872986,264.372040 
M698.346741,692.411194 
	C699.349670,696.434082 700.330750,700.462646 701.359619,704.478882 
	C704.159546,715.407959 706.410156,726.533997 712.898987,736.125854 
	C716.540161,741.508362 720.690796,744.439087 726.026184,744.551758 
	C712.851624,734.192261 708.200256,720.377441 705.941956,705.122986 
	C704.955566,698.460571 702.740234,691.791870 697.628540,686.252014 
	C696.948853,688.551636 697.888000,690.056641 698.346741,692.411194 
M628.416443,725.633667 
	C627.513916,725.566895 626.742371,724.312988 625.457153,725.566833 
	C627.234497,729.536499 628.708313,733.758423 631.343872,737.090820 
	C636.847412,729.077515 633.006714,719.407410 635.952637,710.526001 
	C638.384460,712.265991 638.749146,714.085632 639.308228,715.790100 
	C639.834412,717.394409 640.327148,719.009766 640.834595,720.620239 
	C641.884766,710.318726 639.628113,703.370789 634.807739,701.074463 
	C634.273438,705.334045 634.280396,710.049622 628.405640,710.199158 
	C628.422485,715.652893 632.387329,720.434998 628.416443,725.633667 
M479.979797,237.173615 
	C480.625092,237.628189 481.182373,238.354889 482.131653,237.869522 
	C481.461853,229.661804 474.002350,220.373322 467.010956,219.041397 
	C460.423889,217.786530 452.874756,221.438660 450.120667,227.241409 
	C452.028320,228.219910 453.737732,226.980286 455.390564,226.545593 
	C459.951050,225.346191 464.209930,225.804077 468.552185,227.513382 
	C473.294800,229.380310 476.268677,233.171844 479.979797,237.173615 
M591.515076,776.167908 
	C591.977844,774.189026 593.663757,772.500122 593.197266,769.982117 
	C588.525024,770.960083 588.171692,775.171082 586.201477,778.540466 
	C582.809143,775.287170 580.576660,776.478882 578.149170,779.742554 
	C575.786377,782.919250 572.593750,785.465271 569.226746,787.687134 
	C565.690063,790.020935 563.983459,793.406799 563.379578,798.513855 
	C569.949890,794.395142 572.825439,787.977417 577.524231,782.316223 
	C578.435486,786.515076 575.396057,788.746277 575.707520,792.067322 
	C580.381836,789.384094 579.627686,783.035278 584.570312,780.531494 
	C585.088379,783.827209 582.608032,786.464294 583.830322,790.101746 
	C586.900818,785.414307 589.334534,781.284241 591.515076,776.167908 
M375.904816,734.626343 
	C375.553284,732.780945 375.360260,730.861267 373.371735,729.681885 
	C374.902252,749.237793 380.721710,767.796387 385.931061,786.495911 
	C384.882721,769.015015 379.928864,752.314636 375.904816,734.626343 
M674.541565,446.958954 
	C674.991699,442.992188 674.282959,439.200592 672.965149,435.108032 
	C668.568726,447.123260 671.110657,483.489349 681.270508,488.843750 
	C679.435364,484.026733 677.330994,479.654510 676.108459,475.048218 
	C673.740173,466.124573 671.203796,457.110931 674.541565,446.958954 
M680.545105,596.987122 
	C680.188599,596.591309 679.821228,596.229614 679.440247,596.949158 
	C679.369263,597.083191 679.356873,597.290222 679.401917,597.437805 
	C681.379089,603.919067 682.829346,610.627686 686.780457,616.313049 
	C691.263550,622.764099 695.348633,629.707947 704.034180,631.725037 
	C694.270264,621.635193 686.417053,610.307800 680.545105,596.987122 
M616.958801,756.422058 
	C624.333740,750.800903 624.829956,738.172485 620.580933,731.387878 
	C616.528564,741.190979 617.009766,752.396423 611.220642,761.850403 
	C612.972656,760.210266 614.724609,758.570190 616.958801,756.422058 
M645.553650,643.812439 
	C642.069336,642.137878 642.168030,645.090515 642.387207,646.743164 
	C643.299377,653.622620 642.452454,660.538025 643.090759,667.399231 
	C643.364197,670.338074 645.055908,672.081726 648.728455,672.068237 
	C649.383179,662.500610 646.548706,653.556458 645.553650,643.812439 
M642.455994,681.025330 
	C641.067078,677.569336 641.064331,673.317810 637.032166,671.013855 
	C635.477051,678.602966 643.064575,699.205933 648.710022,701.392517 
	C646.574280,694.517517 644.599426,688.160461 642.455994,681.025330 
M667.322632,302.178955 
	C665.715027,298.871460 664.107361,295.563965 662.499695,292.256470 
	C666.557373,304.415436 667.979187,317.352295 673.875854,328.782288 
	C673.036316,319.815369 671.183655,311.131897 667.322632,302.178955 
M509.820374,163.582031 
	C509.755585,163.728119 509.609467,163.902893 509.648132,164.012543 
	C509.689728,164.130676 509.897583,164.245575 510.044769,164.263214 
	C516.004700,164.977371 521.480530,161.425095 528.114807,163.854065 
	C532.509460,165.463043 538.792358,163.363571 544.015930,161.305878 
	C538.885437,161.247025 533.895386,157.600693 529.125549,159.127792 
	C522.917419,161.115341 516.527100,161.764679 509.820374,163.582031 
M669.361816,495.584778 
	C669.957031,505.160370 671.397766,514.485779 677.205322,522.533630 
	C675.578186,513.423950 673.519958,504.429443 671.378052,495.454865 
	C671.164856,494.561798 670.537476,493.420807 669.361816,495.584778 
M424.914490,268.249237 
	C427.026703,267.161346 428.963379,267.144409 431.262451,268.219727 
	C436.547394,270.691589 442.342041,271.259369 448.020630,272.232910 
	C442.187500,269.684692 436.230469,267.574402 431.059387,263.838318 
	C429.500854,262.712280 427.985474,261.743225 426.077789,262.974365 
	C424.245789,264.156677 424.049805,265.877747 424.914490,268.249237 
M648.264282,641.234802 
	C648.451294,643.452759 648.739990,645.633789 650.765442,648.605042 
	C651.364319,637.619751 649.219299,628.427795 645.724854,619.430664 
	C646.544739,626.419250 647.364624,633.407776 648.264282,641.234802 
M371.785889,841.499084 
	C372.454376,834.999573 374.334259,828.489014 371.433289,821.992249 
	C370.917114,831.870911 370.005219,841.711548 370.496307,851.640564 
	C370.906586,848.555237 371.316864,845.469910 371.785889,841.499084 
M651.992432,250.528870 
	C657.068665,263.213165 657.254639,277.568939 665.548157,289.162262 
	C659.537109,276.569000 658.141785,262.510284 652.664001,249.750717 
	C652.486755,249.337860 652.084656,249.021561 651.787292,248.660248 
	C651.713379,248.955414 651.608276,249.247528 651.578979,249.547073 
	C651.564758,249.692719 651.692322,249.852219 651.992432,250.528870 
M462.464081,906.111572 
	C459.891174,894.905945 458.040039,883.597961 457.966583,872.013000 
	C457.341339,877.446716 456.971771,882.848755 457.437195,888.177856 
	C457.988831,894.494019 458.394928,900.974854 462.464081,906.111572 
M472.786682,898.794128 
	C472.910736,891.581177 474.117737,884.350525 473.191345,876.496521 
	C470.142487,878.708618 470.247589,881.208374 470.434875,883.384277 
	C470.892944,888.707031 468.460876,894.428955 472.786682,898.794128 
M580.600098,214.123032 
	C579.001648,215.651077 578.599121,217.699921 577.685059,219.930054 
	C584.874939,216.912598 591.971375,209.089417 592.405945,203.705383 
	C588.521240,207.131577 584.823364,210.393036 580.600098,214.123032 
M473.590118,247.494476 
	C472.921478,244.819641 472.165649,242.190628 469.782349,239.800629 
	C468.460236,245.234116 467.981293,250.323761 465.973694,255.190369 
	C469.485413,253.788284 472.382996,251.937958 473.590118,247.494476 
M441.786926,144.127335 
	C438.530365,146.046432 435.696259,148.369141 434.408020,152.591492 
	C438.028046,147.260651 445.086395,150.524765 449.097504,146.164719 
	C446.554779,143.136093 446.554779,143.136093 441.786926,144.127335 
M614.239380,229.652130 
	C622.398193,222.649933 630.204163,215.343231 635.108826,205.519913 
	C628.270752,216.043381 617.959595,223.198593 609.234924,232.161194 
	C611.280334,232.298782 612.299377,230.789963 614.239380,229.652130 
M601.300293,770.929871 
	C603.538147,768.900879 605.262878,766.485413 606.644226,763.814209 
	C608.270630,760.669189 607.357849,758.331238 603.749756,755.833801 
	C602.413330,761.498169 601.224548,766.536743 600.035828,771.575317 
	C600.330444,771.479980 600.625122,771.384644 601.300293,770.929871 
M574.922546,718.378052 
	C572.711731,719.311096 571.481262,721.118469 571.330688,723.365417 
	C571.148193,726.088867 572.430542,728.159302 575.460876,727.303894 
	C577.732483,726.662598 579.509277,724.774902 579.668518,722.232727 
	C579.830811,719.639648 578.233948,718.318665 574.922546,718.378052 
M386.182068,797.639893 
	C385.319397,793.735779 385.953979,789.242737 381.564880,786.026306 
	C383.135925,791.503662 384.529053,796.360779 386.007111,801.513977 
	C386.999115,800.194824 386.398163,799.256714 386.182068,797.639893 
M558.451660,165.714905 
	C561.569824,165.986328 564.687988,166.257736 567.806152,166.529144 
	C561.461853,163.842712 555.102539,164.346909 548.756714,166.224991 
	C551.668884,165.888580 554.595154,165.637619 558.451660,165.714905 
M436.328247,859.743469 
	C436.251221,863.306091 436.840851,866.736938 438.327576,870.004211 
	C436.845245,865.311401 438.182495,860.329651 436.515076,855.622681 
	C436.450562,856.731262 436.386017,857.839905 436.328247,859.743469 
M674.678467,391.411285 
	C674.361816,390.605743 674.713013,389.478119 673.050720,388.831299 
	C674.548950,393.775787 673.712158,398.828217 676.632690,403.168610 
	C676.025757,399.480957 675.418762,395.793335 674.678467,391.411285 
M722.012756,763.408447 
	C720.491455,761.314331 718.970154,759.220276 717.448792,757.126160 
	C717.209961,757.322571 716.971130,757.518982 716.732300,757.715393 
	C719.668701,761.775513 722.605103,765.835693 725.541565,769.895813 
	C725.772095,769.734253 726.002563,769.572632 726.233093,769.411011 
	C724.965881,767.597961 723.698669,765.784851 722.012756,763.408447 
M447.903046,247.600113 
	C450.181213,248.664642 451.309113,247.593765 451.572723,245.431549 
	C451.735657,244.095230 450.862732,243.134262 449.514984,243.421432 
	C447.529541,243.844467 446.270874,244.948669 447.903046,247.600113 
M356.216461,850.231384 
	C355.758240,851.833130 354.847198,853.412109 355.959656,855.611938 
	C358.204407,850.676880 357.706512,845.943237 357.479156,841.235718 
	C357.547058,844.040710 357.057678,846.761597 356.216461,850.231384 
z"/>
<path fill="#000000" opacity="1.000000" stroke="none" 
	d="
M541.184326,401.985107 
	C545.891968,402.081329 550.201843,399.141785 554.784058,403.202179 
	C546.592102,405.251251 538.400208,407.300323 529.869568,409.434082 
	C532.438416,412.792480 536.827942,412.400818 539.066406,416.260315 
	C534.185669,419.809753 529.411377,417.480591 525.046143,415.922516 
	C516.971741,413.040558 509.223083,409.421051 505.168243,400.907684 
	C507.880432,399.031097 509.956024,399.875061 512.037170,400.310333 
	C521.518921,402.293427 531.037964,403.722046 541.184326,401.985107 
z"/>
<path fill="#000000" opacity="1.000000" stroke="none" 
	d="
M373.512817,322.029694 
	C375.326019,320.986633 376.299103,321.883514 377.115845,323.000732 
	C383.863098,332.230347 390.598175,341.468872 397.309601,350.724548 
	C397.773651,351.364441 398.236237,352.144257 397.265076,353.264313 
	C394.286316,351.645905 392.200439,348.937866 390.016266,346.457214 
	C384.981445,340.739075 380.080780,334.899261 375.253082,329.004456 
	C373.715576,327.127075 371.987335,325.093414 373.512817,322.029694 
z"/>
<path fill="#000000" opacity="1.000000" stroke="none" 
	d="
M347.242432,304.698456 
	C347.243103,303.508331 347.260925,302.675201 347.444397,301.880310 
	C347.821838,300.244690 348.301086,298.533295 350.252899,298.207489 
	C351.674561,297.970184 352.292603,299.138062 352.557343,300.307007 
	C353.099945,302.702850 352.818542,305.052460 350.752930,306.578400 
	C349.133423,307.774750 348.024231,306.618439 347.242432,304.698456 
z"/>
<path fill="#000000" opacity="1.000000" stroke="none" 
	d="
M348.935669,330.845032 
	C348.445465,333.267700 347.078522,333.962006 345.270630,333.066040 
	C343.478333,332.177795 342.920990,330.381836 343.128265,328.469360 
	C343.264557,327.211548 344.126587,326.210297 345.412506,326.323334 
	C347.820221,326.534973 348.449707,328.499420 348.935669,330.845032 
z"/>
<path fill="#000000" opacity="1.000000" stroke="none" 
	d="
M351.523285,318.963562 
	C351.088684,321.158173 350.162842,322.492218 348.115387,321.528595 
	C346.508575,320.772339 345.859344,319.191376 346.161316,317.411041 
	C346.385101,316.091797 346.924438,314.578613 348.384491,314.513214 
	C351.090363,314.392029 351.182251,316.686584 351.523285,318.963562 
z"/>
<path fill="#000000" opacity="1.000000" stroke="none" 
	d="
M367.272461,300.978943 
	C368.548553,303.167725 368.514282,304.893951 366.370361,305.828400 
	C364.924042,306.458832 363.840668,305.408966 363.128876,304.223358 
	C362.336700,302.903839 361.832092,301.367859 362.944427,300.064636 
	C364.480438,298.264984 365.846924,299.341492 367.272461,300.978943 
z"/>
<path fill="#000000" opacity="1.000000" stroke="none" 
	d="
M357.007812,309.561707 
	C358.074524,307.316528 359.458496,307.034607 361.074860,308.319458 
	C362.330444,309.317566 362.701355,310.757690 362.414368,312.291321 
	C362.171417,313.589813 361.224487,314.291779 359.938812,314.147034 
	C357.445984,313.866425 356.878174,312.078003 357.007812,309.561707 
z"/>
<path fill="#000000" opacity="1.000000" stroke="none" 
	d="
M362.580017,347.270264 
	C366.341827,347.395325 367.433472,349.507324 366.967377,352.590149 
	C366.801544,353.686859 365.706238,354.328522 364.668060,353.820282 
	C361.948883,352.489044 360.544434,350.509552 362.580017,347.270264 
z"/>
<path fill="#000000" opacity="1.000000" stroke="none" 
	d="
M359.695190,321.174744 
	C361.440918,322.560181 362.890564,323.837646 361.668854,325.890900 
	C361.029785,326.964966 359.868378,327.286591 358.660767,326.660370 
	C356.967499,325.782318 355.503632,324.474823 355.809448,322.491913 
	C356.098999,320.614624 357.805725,320.656769 359.695190,321.174744 
z"/>
<path fill="#000000" opacity="1.000000" stroke="none" 
	d="
M375.262268,349.470947 
	C373.061218,348.142700 372.144073,346.545410 373.209534,344.409912 
	C373.685211,343.456512 374.763336,343.254181 375.770599,343.593628 
	C377.259949,344.095581 378.342468,345.104126 378.463196,346.723816 
	C378.608429,348.672852 377.767639,349.852539 375.262268,349.470947 
z"/>
<path fill="#000000" opacity="1.000000" stroke="none" 
	d="
M338.867065,340.347900 
	C339.581757,342.363953 340.419312,344.235046 338.074280,345.255096 
	C336.852264,345.786591 335.830353,344.991333 335.168610,343.979370 
	C334.215363,342.521667 333.757874,340.831818 335.010803,339.427582 
	C336.344818,337.932404 337.639984,338.776245 338.867065,340.347900 
z"/>
<path fill="#000000" opacity="1.000000" stroke="none" 
	d="
M375.653931,303.783661 
	C376.422302,304.385010 376.961426,304.812347 377.260193,305.368774 
	C378.037842,306.816986 379.085510,308.559509 377.126434,309.673126 
	C375.523315,310.584381 374.311066,309.226837 373.608215,307.872040 
	C372.594482,305.918060 372.124207,303.999603 375.653931,303.783661 
z"/>
<path fill="#000000" opacity="1.000000" stroke="none" 
	d="
M349.928314,337.897919 
	C352.746674,336.326721 354.035736,337.505951 354.151825,339.964600 
	C354.233826,341.701782 353.229919,343.604004 351.304382,343.177612 
	C348.585052,342.575531 348.425354,340.434387 349.928314,337.897919 
z"/>
<path fill="#000000" opacity="1.000000" stroke="none" 
	d="
M365.007019,333.233002 
	C363.629791,330.773712 364.381714,329.353088 366.680054,329.112122 
	C368.184906,328.954346 369.172913,330.248138 369.055054,331.659851 
	C368.851593,334.096863 367.367310,334.609039 365.007019,333.233002 
z"/>
<path fill="#000000" opacity="1.000000" stroke="none" 
	d="
M347.031006,378.181946 
	C347.533356,380.186737 348.773102,381.983002 346.418030,383.532410 
	C344.149628,381.916931 343.186127,379.622040 344.242706,377.188019 
	C344.941833,375.577393 346.115509,376.996887 347.031006,378.181946 
z"/>
</svg>